<svg width="100" height="100" viewBox="0 0 100 100" fill="none" xmlns="http://www.w3.org/2000/svg">
<rect width="100" height="100" rx="20" fill="#111827"/>
<path d="M28 20C20 20 20 30 20 36V44C20 48 16 50 16 50C16 50 20 52 20 56V64C20 70 20 80 28 80" stroke="#A78BFA" stroke-width="4" stroke-linecap="round"/>
<path d="M72 20C80 20 80 30 80 36V44C80 48 84 50 84 50C84 50 80 52 80 56V64C80 70 80 80 72 80" stroke="#A78BFA" stroke-width="4" stroke-linecap="round"/>
<rect x="32" y="28" width="36" height="6" rx="3" fill="#3B82F6"/>
<rect x="32" y="40" width="28" height="6" rx="3" fill="#3B82F6" fill-opacity="0.7"/>
<rect x="32" y="52" width="36" height="6" rx="3" fill="#3B82F6" fill-opacity="0.5"/>
<rect x="32" y="64" width="20" height="6" rx="3" fill="#3B82F6" fill-opacity="0.3"/>
</svg>